{
 "asset": {
  "version": "2.0",
  "generator": "oxshowcase_generate"
 },
 "scene": 0,
 "scenes": [
  {
   "name": "Mannequin",
   "nodes": [
    19
   ]
  }
 ],
 "nodes": [
  {
   "name": "Root",
   "translation": [
    0.0,
    0.0,
    0.0
   ],
   "children": [
    1
   ]
  },
  {
   "name": "Hips",
   "translation": [
    0.0,
    0.949999988079071,
    0.0
   ],
   "children": [
    2,
    12,
    15
   ]
  },
  {
   "name": "Spine",
   "translation": [
    0.0,
    0.11999999731779099,
    0.0
   ],
   "children": [
    3
   ]
  },
  {
   "name": "Chest",
   "translation": [
    0.0,
    0.20000000298023224,
    0.0
   ],
   "children": [
    4,
    6,
    9
   ]
  },
  {
   "name": "Neck",
   "translation": [
    0.0,
    0.2199999988079071,
    0.0
   ],
   "children": [
    5
   ]
  },
  {
   "name": "Head",
   "translation": [
    0.0,
    0.09000000357627869,
    0.0
   ]
  },
  {
   "name": "UpperArm.L",
   "translation": [
    0.1899999976158142,
    0.17000000178813934,
    0.0
   ],
   "children": [
    7
   ]
  },
  {
   "name": "LowerArm.L",
   "translation": [
    0.0,
    -0.2800000011920929,
    0.0
   ],
   "children": [
    8
   ]
  },
  {
   "name": "Hand.L",
   "translation": [
    0.0,
    -0.25,
    0.0
   ]
  },
  {
   "name": "UpperArm.R",
   "translation": [
    -0.1899999976158142,
    0.17000000178813934,
    0.0
   ],
   "children": [
    10
   ]
  },
  {
   "name": "LowerArm.R",
   "translation": [
    0.0,
    -0.2800000011920929,
    0.0
   ],
   "children": [
    11
   ]
  },
  {
   "name": "Hand.R",
   "translation": [
    0.0,
    -0.25,
    0.0
   ]
  },
  {
   "name": "UpperLeg.L",
   "translation": [
    0.10000000149011612,
    -0.05000000074505806,
    0.0
   ],
   "children": [
    13
   ]
  },
  {
   "name": "LowerLeg.L",
   "translation": [
    0.0,
    -0.4300000071525574,
    0.0
   ],
   "children": [
    14
   ]
  },
  {
   "name": "Foot.L",
   "translation": [
    0.0,
    -0.4099999964237213,
    0.0
   ]
  },
  {
   "name": "UpperLeg.R",
   "translation": [
    -0.10000000149011612,
    -0.05000000074505806,
    0.0
   ],
   "children": [
    16
   ]
  },
  {
   "name": "LowerLeg.R",
   "translation": [
    0.0,
    -0.4300000071525574,
    0.0
   ],
   "children": [
    17
   ]
  },
  {
   "name": "Foot.R",
   "translation": [
    0.0,
    -0.4099999964237213,
    0.0
   ]
  },
  {
   "name": "MannequinMesh",
   "mesh": 0,
   "skin": 0
  },
  {
   "name": "Mannequin",
   "children": [
    0,
    18
   ]
  }
 ],
 "meshes": [
  {
   "name": "Mannequin",
   "primitives": [
    {
     "attributes": {
      "POSITION": 0,
      "NORMAL": 1,
      "JOINTS_0": 2,
      "WEIGHTS_0": 3
     },
     "indices": 4,
     "material": 0
    }
   ]
  }
 ],
 "materials": [
  {
   "name": "Mannequin",
   "pbrMetallicRoughness": {
    "baseColorFactor": [
     0.800000011920929,
     0.550000011920929,
     0.30000001192092896,
     1.0
    ],
    "metallicFactor": 0.0,
    "roughnessFactor": 0.44999998807907104
   }
  }
 ],
 "skins": [
  {
   "name": "MannequinSkin",
   "inverseBindMatrices": 5,
   "joints": [
    0,
    1,
    2,
    3,
    4,
    5,
    6,
    7,
    8,
    9,
    10,
    11,
    12,
    13,
    14,
    15,
    16,
    17
   ],
   "skeleton": 0
  }
 ],
 "animations": [
  {
   "name": "Idle",
   "samplers": [
    {
     "input": 6,
     "output": 7,
     "interpolation": "LINEAR"
    },
    {
     "input": 6,
     "output": 8,
     "interpolation": "LINEAR"
    },
    {
     "input": 6,
     "output": 9,
     "interpolation": "LINEAR"
    },
    {
     "input": 6,
     "output": 10,
     "interpolation": "LINEAR"
    },
    {
     "input": 6,
     "output": 11,
     "interpolation": "LINEAR"
    },
    {
     "input": 6,
     "output": 12,
     "interpolation": "LINEAR"
    },
    {
     "input": 6,
     "output": 13,
     "interpolation": "LINEAR"
    }
   ],
   "channels": [
    {
     "sampler": 0,
     "target": {
      "node": 3,
      "path": "rotation"
     }
    },
    {
     "sampler": 1,
     "target": {
      "node": 5,
      "path": "rotation"
     }
    },
    {
     "sampler": 2,
     "target": {
      "node": 6,
      "path": "rotation"
     }
    },
    {
     "sampler": 3,
     "target": {
      "node": 7,
      "path": "rotation"
     }
    },
    {
     "sampler": 4,
     "target": {
      "node": 9,
      "path": "rotation"
     }
    },
    {
     "sampler": 5,
     "target": {
      "node": 10,
      "path": "rotation"
     }
    },
    {
     "sampler": 6,
     "target": {
      "node": 1,
      "path": "translation"
     }
    }
   ]
  },
  {
   "name": "Walk",
   "samplers": [
    {
     "input": 14,
     "output": 15,
     "interpolation": "LINEAR"
    },
    {
     "input": 14,
     "output": 16,
     "interpolation": "LINEAR"
    },
    {
     "input": 14,
     "output": 17,
     "interpolation": "LINEAR"
    },
    {
     "input": 14,
     "output": 18,
     "interpolation": "LINEAR"
    },
    {
     "input": 14,
     "output": 19,
     "interpolation": "LINEAR"
    },
    {
     "input": 14,
     "output": 20,
     "interpolation": "LINEAR"
    },
    {
     "input": 14,
     "output": 21,
     "interpolation": "LINEAR"
    },
    {
     "input": 14,
     "output": 22,
     "interpolation": "LINEAR"
    },
    {
     "input": 14,
     "output": 23,
     "interpolation": "LINEAR"
    },
    {
     "input": 14,
     "output": 24,
     "interpolation": "LINEAR"
    },
    {
     "input": 14,
     "output": 25,
     "interpolation": "LINEAR"
    },
    {
     "input": 14,
     "output": 26,
     "interpolation": "LINEAR"
    },
    {
     "input": 14,
     "output": 27,
     "interpolation": "LINEAR"
    }
   ],
   "channels": [
    {
     "sampler": 0,
     "target": {
      "node": 1,
      "path": "rotation"
     }
    },
    {
     "sampler": 1,
     "target": {
      "node": 2,
      "path": "rotation"
     }
    },
    {
     "sampler": 2,
     "target": {
      "node": 6,
      "path": "rotation"
     }
    },
    {
     "sampler": 3,
     "target": {
      "node": 7,
      "path": "rotation"
     }
    },
    {
     "sampler": 4,
     "target": {
      "node": 9,
      "path": "rotation"
     }
    },
    {
     "sampler": 5,
     "target": {
      "node": 10,
      "path": "rotation"
     }
    },
    {
     "sampler": 6,
     "target": {
      "node": 12,
      "path": "rotation"
     }
    },
    {
     "sampler": 7,
     "target": {
      "node": 13,
      "path": "rotation"
     }
    },
    {
     "sampler": 8,
     "target": {
      "node": 14,
      "path": "rotation"
     }
    },
    {
     "sampler": 9,
     "target": {
      "node": 15,
      "path": "rotation"
     }
    },
    {
     "sampler": 10,
     "target": {
      "node": 16,
      "path": "rotation"
     }
    },
    {
     "sampler": 11,
     "target": {
      "node": 17,
      "path": "rotation"
     }
    },
    {
     "sampler": 12,
     "target": {
      "node": 1,
      "path": "translation"
     }
    }
   ]
  },
  {
   "name": "Run",
   "samplers": [
    {
     "input": 28,
     "output": 29,
     "interpolation": "LINEAR"
    },
    {
     "input": 28,
     "output": 30,
     "interpolation": "LINEAR"
    },
    {
     "input": 28,
     "output": 31,
     "interpolation": "LINEAR"
    },
    {
     "input": 28,
     "output": 32,
     "interpolation": "LINEAR"
    },
    {
     "input": 28,
     "output": 33,
     "interpolation": "LINEAR"
    },
    {
     "input": 28,
     "output": 34,
     "interpolation": "LINEAR"
    },
    {
     "input": 28,
     "output": 35,
     "interpolation": "LINEAR"
    },
    {
     "input": 28,
     "output": 36,
     "interpolation": "LINEAR"
    },
    {
     "input": 28,
     "output": 37,
     "interpolation": "LINEAR"
    },
    {
     "input": 28,
     "output": 38,
     "interpolation": "LINEAR"
    },
    {
     "input": 28,
     "output": 39,
     "interpolation": "LINEAR"
    },
    {
     "input": 28,
     "output": 40,
     "interpolation": "LINEAR"
    },
    {
     "input": 28,
     "output": 41,
     "interpolation": "LINEAR"
    },
    {
     "input": 28,
     "output": 42,
     "interpolation": "LINEAR"
    }
   ],
   "channels": [
    {
     "sampler": 0,
     "target": {
      "node": 1,
      "path": "rotation"
     }
    },
    {
     "sampler": 1,
     "target": {
      "node": 2,
      "path": "rotation"
     }
    },
    {
     "sampler": 2,
     "target": {
      "node": 5,
      "path": "rotation"
     }
    },
    {
     "sampler": 3,
     "target": {
      "node": 6,
      "path": "rotation"
     }
    },
    {
     "sampler": 4,
     "target": {
      "node": 7,
      "path": "rotation"
     }
    },
    {
     "sampler": 5,
     "target": {
      "node": 9,
      "path": "rotation"
     }
    },
    {
     "sampler": 6,
     "target": {
      "node": 10,
      "path": "rotation"
     }
    },
    {
     "sampler": 7,
     "target": {
      "node": 12,
      "path": "rotation"
     }
    },
    {
     "sampler": 8,
     "target": {
      "node": 13,
      "path": "rotation"
     }
    },
    {
     "sampler": 9,
     "target": {
      "node": 14,
      "path": "rotation"
     }
    },
    {
     "sampler": 10,
     "target": {
      "node": 15,
      "path": "rotation"
     }
    },
    {
     "sampler": 11,
     "target": {
      "node": 16,
      "path": "rotation"
     }
    },
    {
     "sampler": 12,
     "target": {
      "node": 17,
      "path": "rotation"
     }
    },
    {
     "sampler": 13,
     "target": {
      "node": 1,
      "path": "translation"
     }
    }
   ]
  }
 ],
 "buffers": [
  {
   "uri": "Mannequin.bin",
   "byteLength": 39376
  }
 ],
 "bufferViews": [
  {
   "buffer": 0,
   "byteOffset": 0,
   "byteLength": 5472,
   "target": 34962
  },
  {
   "buffer": 0,
   "byteOffset": 5472,
   "byteLength": 5472,
   "target": 34962
  },
  {
   "buffer": 0,
   "byteOffset": 10944,
   "byteLength": 3648,
   "target": 34962
  },
  {
   "buffer": 0,
   "byteOffset": 14592,
   "byteLength": 7296,
   "target": 34962
  },
  {
   "buffer": 0,
   "byteOffset": 21888,
   "byteLength": 2736,
   "target": 34963
  },
  {
   "buffer": 0,
   "byteOffset": 24624,
   "byteLength": 1152
  },
  {
   "buffer": 0,
   "byteOffset": 25776,
   "byteLength": 100
  },
  {
   "buffer": 0,
   "byteOffset": 25876,
   "byteLength": 400
  },
  {
   "buffer": 0,
   "byteOffset": 26276,
   "byteLength": 400
  },
  {
   "buffer": 0,
   "byteOffset": 26676,
   "byteLength": 400
  },
  {
   "buffer": 0,
   "byteOffset": 27076,
   "byteLength": 400
  },
  {
   "buffer": 0,
   "byteOffset": 27476,
   "byteLength": 400
  },
  {
   "buffer": 0,
   "byteOffset": 27876,
   "byteLength": 400
  },
  {
   "buffer": 0,
   "byteOffset": 28276,
   "byteLength": 300
  },
  {
   "buffer": 0,
   "byteOffset": 28576,
   "byteLength": 100
  },
  {
   "buffer": 0,
   "byteOffset": 28676,
   "byteLength": 400
  },
  {
   "buffer": 0,
   "byteOffset": 29076,
   "byteLength": 400
  },
  {
   "buffer": 0,
   "byteOffset": 29476,
   "byteLength": 400
  },
  {
   "buffer": 0,
   "byteOffset": 29876,
   "byteLength": 400
  },
  {
   "buffer": 0,
   "byteOffset": 30276,
   "byteLength": 400
  },
  {
   "buffer": 0,
   "byteOffset": 30676,
   "byteLength": 400
  },
  {
   "buffer": 0,
   "byteOffset": 31076,
   "byteLength": 400
  },
  {
   "buffer": 0,
   "byteOffset": 31476,
   "byteLength": 400
  },
  {
   "buffer": 0,
   "byteOffset": 31876,
   "byteLength": 400
  },
  {
   "buffer": 0,
   "byteOffset": 32276,
   "byteLength": 400
  },
  {
   "buffer": 0,
   "byteOffset": 32676,
   "byteLength": 400
  },
  {
   "buffer": 0,
   "byteOffset": 33076,
   "byteLength": 400
  },
  {
   "buffer": 0,
   "byteOffset": 33476,
   "byteLength": 300
  },
  {
   "buffer": 0,
   "byteOffset": 33776,
   "byteLength": 100
  },
  {
   "buffer": 0,
   "byteOffset": 33876,
   "byteLength": 400
  },
  {
   "buffer": 0,
   "byteOffset": 34276,
   "byteLength": 400
  },
  {
   "buffer": 0,
   "byteOffset": 34676,
   "byteLength": 400
  },
  {
   "buffer": 0,
   "byteOffset": 35076,
   "byteLength": 400
  },
  {
   "buffer": 0,
   "byteOffset": 35476,
   "byteLength": 400
  },
  {
   "buffer": 0,
   "byteOffset": 35876,
   "byteLength": 400
  },
  {
   "buffer": 0,
   "byteOffset": 36276,
   "byteLength": 400
  },
  {
   "buffer": 0,
   "byteOffset": 36676,
   "byteLength": 400
  },
  {
   "buffer": 0,
   "byteOffset": 37076,
   "byteLength": 400
  },
  {
   "buffer": 0,
   "byteOffset": 37476,
   "byteLength": 400
  },
  {
   "buffer": 0,
   "byteOffset": 37876,
   "byteLength": 400
  },
  {
   "buffer": 0,
   "byteOffset": 38276,
   "byteLength": 400
  },
  {
   "buffer": 0,
   "byteOffset": 38676,
   "byteLength": 400
  },
  {
   "buffer": 0,
   "byteOffset": 39076,
   "byteLength": 300
  }
 ],
 "accessors": [
  {
   "bufferView": 0,
   "componentType": 5126,
   "count": 456,
   "type": "VEC3",
   "min": [
    -0.25,
    -0.05000005662441254,
    -0.10999999940395355
   ],
   "max": [
    0.25,
    1.8199999332427979,
    0.1599999964237213
   ]
  },
  {
   "bufferView": 1,
   "componentType": 5126,
   "count": 456,
   "type": "VEC3"
  },
  {
   "bufferView": 2,
   "componentType": 5123,
   "count": 456,
   "type": "VEC4"
  },
  {
   "bufferView": 3,
   "componentType": 5126,
   "count": 456,
   "type": "VEC4"
  },
  {
   "bufferView": 4,
   "componentType": 5125,
   "count": 684,
   "type": "SCALAR"
  },
  {
   "bufferView": 5,
   "componentType": 5126,
   "count": 18,
   "type": "MAT4"
  },
  {
   "bufferView": 6,
   "componentType": 5126,
   "count": 25,
   "type": "SCALAR",
   "min": [
    0.0
   ],
   "max": [
    3.0
   ]
  },
  {
   "bufferView": 7,
   "componentType": 5126,
   "count": 25,
   "type": "VEC4"
  },
  {
   "bufferView": 8,
   "componentType": 5126,
   "count": 25,
   "type": "VEC4"
  },
  {
   "bufferView": 9,
   "componentType": 5126,
   "count": 25,
   "type": "VEC4"
  },
  {
   "bufferView": 10,
   "componentType": 5126,
   "count": 25,
   "type": "VEC4"
  },
  {
   "bufferView": 11,
   "componentType": 5126,
   "count": 25,
   "type": "VEC4"
  },
  {
   "bufferView": 12,
   "componentType": 5126,
   "count": 25,
   "type": "VEC4"
  },
  {
   "bufferView": 13,
   "componentType": 5126,
   "count": 25,
   "type": "VEC3"
  },
  {
   "bufferView": 14,
   "componentType": 5126,
   "count": 25,
   "type": "SCALAR",
   "min": [
    0.0
   ],
   "max": [
    1.100000023841858
   ]
  },
  {
   "bufferView": 15,
   "componentType": 5126,
   "count": 25,
   "type": "VEC4"
  },
  {
   "bufferView": 16,
   "componentType": 5126,
   "count": 25,
   "type": "VEC4"
  },
  {
   "bufferView": 17,
   "componentType": 5126,
   "count": 25,
   "type": "VEC4"
  },
  {
   "bufferView": 18,
   "componentType": 5126,
   "count": 25,
   "type": "VEC4"
  },
  {
   "bufferView": 19,
   "componentType": 5126,
   "count": 25,
   "type": "VEC4"
  },
  {
   "bufferView": 20,
   "componentType": 5126,
   "count": 25,
   "type": "VEC4"
  },
  {
   "bufferView": 21,
   "componentType": 5126,
   "count": 25,
   "type": "VEC4"
  },
  {
   "bufferView": 22,
   "componentType": 5126,
   "count": 25,
   "type": "VEC4"
  },
  {
   "bufferView": 23,
   "componentType": 5126,
   "count": 25,
   "type": "VEC4"
  },
  {
   "bufferView": 24,
   "componentType": 5126,
   "count": 25,
   "type": "VEC4"
  },
  {
   "bufferView": 25,
   "componentType": 5126,
   "count": 25,
   "type": "VEC4"
  },
  {
   "bufferView": 26,
   "componentType": 5126,
   "count": 25,
   "type": "VEC4"
  },
  {
   "bufferView": 27,
   "componentType": 5126,
   "count": 25,
   "type": "VEC3"
  },
  {
   "bufferView": 28,
   "componentType": 5126,
   "count": 25,
   "type": "SCALAR",
   "min": [
    0.0
   ],
   "max": [
    0.699999988079071
   ]
  },
  {
   "bufferView": 29,
   "componentType": 5126,
   "count": 25,
   "type": "VEC4"
  },
  {
   "bufferView": 30,
   "componentType": 5126,
   "count": 25,
   "type": "VEC4"
  },
  {
   "bufferView": 31,
   "componentType": 5126,
   "count": 25,
   "type": "VEC4"
  },
  {
   "bufferView": 32,
   "componentType": 5126,
   "count": 25,
   "type": "VEC4"
  },
  {
   "bufferView": 33,
   "componentType": 5126,
   "count": 25,
   "type": "VEC4"
  },
  {
   "bufferView": 34,
   "componentType": 5126,
   "count": 25,
   "type": "VEC4"
  },
  {
   "bufferView": 35,
   "componentType": 5126,
   "count": 25,
   "type": "VEC4"
  },
  {
   "bufferView": 36,
   "componentType": 5126,
   "count": 25,
   "type": "VEC4"
  },
  {
   "bufferView": 37,
   "componentType": 5126,
   "count": 25,
   "type": "VEC4"
  },
  {
   "bufferView": 38,
   "componentType": 5126,
   "count": 25,
   "type": "VEC4"
  },
  {
   "bufferView": 39,
   "componentType": 5126,
   "count": 25,
   "type": "VEC4"
  },
  {
   "bufferView": 40,
   "componentType": 5126,
   "count": 25,
   "type": "VEC4"
  },
  {
   "bufferView": 41,
   "componentType": 5126,
   "count": 25,
   "type": "VEC4"
  },
  {
   "bufferView": 42,
   "componentType": 5126,
   "count": 25,
   "type": "VEC3"
  }
 ]
}
